# xmcd
#
# Track frame offsets:
#	150
#	2801
#	9625
#	19200
#	22104
#	28040
#	34772
#	39152
#	45647
#	51508
#	55922
#	72003
#	80700
#	84386
#	100537
#	110016
#	114084
#	122666
#	129948
#	148955
#
# Disc length: 2050 seconds
#
# Revision: 0
# Processed by: cddbd v1.5.2PL0 Copyright (c) Steve Scherf et al.
# Submitted via: audiograbber 1.83.01
#
DISCID=05080014
DTITLE=Barnesanger - Alle våre barnesanger 2
DYEAR=2005
DGENRE=Barnesanger
TTITLE0=Fløy en liten blåfugl
TTITLE1=Nøtteliten
TTITLE2=Måltrost
TTITLE3=Det bor en baker
TTITLE4=Bro bro brille
TTITLE5=Jeg gikk en tur på stien
TTITLE6=Lisa gikk til skolen
TTITLE7=Når en liten mus skal ut og gå
TTITLE8=Ride ride ranke
TTITLE9=Ta den ring
TTITLE10=Bamses fødselsdag
TTITLE11=Her kommer guttemusikken
TTITLE12=Ro ro til fiskeskjær
TTITLE13=Lillebrors vise
TTITLE14=Å jeg vet en seter
TTITLE15=Det satt to katter på et bord
TTITLE16=Trollmor
TTITLE17=Hompetitten
TTITLE18=Dyrene i Afrika
TTITLE19=Bæ bæ lille lam
EXTD=
EXTT0=
EXTT1=
EXTT2=
EXTT3=
EXTT4=
EXTT5=
EXTT6=
EXTT7=
EXTT8=
EXTT9=
EXTT10=
EXTT11=
EXTT12=
EXTT13=
EXTT14=
EXTT15=
EXTT16=
EXTT17=
EXTT18=
EXTT19=
PLAYORDER=
